# xmcd
#
# Track frame offsets:
#  150
#  15296
#  33833
#  46021
#  62517
#  84058
#  99200
#  114999
#  131999
#  144976
#
# Disc length: 2249 seconds
#
# Revision: 0
# Processed by: cddbd v1.5.2PL0 Copyright (c) Steve Scherf et al.
# Submitted via: AltoMP3_Maker 3.0
#
DISCID=6708c70a
DTITLE=Emmylou Harris - Pieces Of The Sky
DYEAR=1900
DGENRE=
TTITLE0=Bluebird wine
TTITLE1=Too far gone
TTITLE2=If I could only win your love
TTITLE3=Boulder to Birmingham
TTITLE4=Before believing
TTITLE5=Bottle let me down
TTITLE6=Sleepless nights
TTITLE7=Coat of many colors
TTITLE8=For no-one
TTITLE9=Queen of the Silver Dollar
EXTD=
EXTT0=
EXTT1=
EXTT2=
EXTT3=
EXTT4=
EXTT5=
EXTT6=
EXTT7=
EXTT8=
EXTT9=
PLAYORDER=
